# 3ds Max Wavefront OBJ Exporter v0.97b - (c)2007 guruware
# File Created: 13.12.2020 17:54:28

mtllib Wall02.mtl

#
# object Box007
#

v  -5.0000 0.0000 75.0000
v  -5.0000 0.0000 -75.0000
v  5.0000 0.0000 -75.0000
v  5.0000 0.0000 75.0000
v  -5.0000 190.0000 75.0000
v  5.0000 190.0000 75.0000
v  5.0000 190.0000 -75.0000
v  -5.0000 190.0630 -75.0000
v  5.0000 106.4000 75.0000
v  -5.0000 106.4000 75.0000
v  5.0000 106.4000 -75.0000
v  -5.0000 106.4630 -75.0000
# 12 vertices

vn -0.5774 -0.5774 0.5774
vn -0.5774 -0.5774 -0.5774
vn 0.5774 -0.5774 -0.5774
vn 0.5774 -0.5774 0.5774
vn -0.5774 0.5772 0.5775
vn 0.5774 0.5774 0.5774
vn 0.5790 0.5754 -0.5777
vn -0.5757 0.5795 -0.5769
vn 0.7071 0.0000 0.7071
vn -0.7071 0.0000 0.7071
vn 0.7071 0.0000 -0.7071
vn -0.7071 0.0000 -0.7071
# 12 vertex normals

vt 0.4396 0.9078 0.0000
vt 0.8758 0.9078 0.0000
vt 0.8758 0.9369 0.0000
vt 0.4396 0.9369 0.0000
vt 0.4382 0.9078 0.0000
vt 0.4382 0.9369 0.0000
vt 0.0020 0.9369 0.0000
vt 0.0020 0.9078 0.0000
vt 0.5545 0.8773 0.0000
vt 0.5545 0.9064 0.0000
vt 0.2451 0.9064 0.0000
vt 0.2451 0.8773 0.0000
vt 0.5545 0.4396 0.0000
vt 0.5545 0.8758 0.0000
vt 0.2451 0.8758 0.0000
vt 0.2451 0.4396 0.0000
vt 0.5547 0.9689 0.0000
vt 0.5547 0.9980 0.0000
vt 0.2451 0.9980 0.0000
vt 0.2453 0.9689 0.0000
vt 0.5547 0.0020 0.0000
vt 0.5547 0.4382 0.0000
vt 0.2453 0.4382 0.0000
vt 0.2451 0.0020 0.0000
vt 0.0020 0.9064 0.0000
vt 0.0020 0.8773 0.0000
vt 0.0020 0.8758 0.0000
vt 0.0020 0.4396 0.0000
vt 0.0020 0.9980 0.0000
vt 0.0022 0.9689 0.0000
vt 0.0022 0.4382 0.0000
vt 0.0020 0.0020 0.0000
# 32 texture coords

o Box007
g Box007
usemtl Material__38
s 2
f 1/1/1 2/2/2 3/3/3 4/4/4 
usemtl Material__36
s 4
f 5/5/5 6/6/6 7/7/7 8/8/8 
usemtl Material__38
s 8
f 1/9/1 4/10/4 9/11/9 10/12/10 
s 16
f 4/13/4 3/14/3 11/15/11 9/16/9 
s 32
f 3/17/3 2/18/2 12/19/12 11/20/11 
s 64
f 2/21/2 1/22/1 10/23/10 12/24/12 
usemtl Material__36
s 8
f 9/11/9 6/25/6 5/26/5 10/12/10 
s 16
f 11/15/11 7/27/7 6/28/6 9/16/9 
s 32
f 12/19/12 8/29/8 7/30/7 11/20/11 
s 64
f 10/23/10 5/31/5 8/32/8 12/24/12 
# 10 polygons

