# 3ds Max Wavefront OBJ Exporter v0.97b - (c)2007 guruware
# File Created: 13.12.2020 17:56:03

mtllib Wall03.mtl

#
# object Box008
#

v  -5.0000 0.0000 75.0000
v  -5.0000 0.0000 -75.0000
v  5.0000 0.0000 -75.0000
v  5.0000 0.0000 75.0000
v  -5.0000 190.0000 75.0000
v  5.0000 190.0000 75.0000
v  5.0000 190.0000 -75.0000
v  -5.0000 190.0000 -75.0000
v  5.0000 106.4000 75.0000
v  -5.0000 106.4000 75.0000
v  5.0000 106.4000 -75.0000
v  5.0000 0.0000 -85.0000
v  -4.5000 0.0000 -85.0000
v  -4.5000 106.4000 -85.0000
v  5.0000 106.4000 -85.0000
v  -5.0000 106.4000 -75.0000
v  -5.0000 0.0000 -84.5000
v  -5.0000 106.4000 -84.5000
v  5.0000 190.0000 -85.0000
v  -4.5000 190.0000 -85.0000
v  -5.0000 190.0000 -84.5000
v  145.0000 106.4000 -75.0000
v  145.0000 190.0000 -75.0000
v  145.0000 0.0000 -85.0000
v  145.0000 0.0000 -75.0000
v  145.0000 106.4000 -85.0000
v  145.0000 190.0000 -85.0000
v  155.0000 190.0000 -84.5000
v  155.0000 190.0000 -75.0000
v  155.0000 106.4000 -75.0000
v  155.0000 106.4000 -84.5000
v  145.0000 190.0000 75.0000
v  145.0000 106.4000 75.0000
v  155.0000 106.4000 75.0000
v  155.0000 190.0000 75.0000
v  154.5000 0.0000 -85.0000
v  155.0000 0.0000 -84.5000
v  155.0000 0.0000 -75.0000
v  154.5000 106.4000 -85.0000
v  154.5000 190.0000 -85.0000
v  155.0000 0.0000 75.0000
v  145.0000 0.0000 75.0000
# 42 vertices

vn -0.5774 -0.5774 0.5774
vn -0.7071 -0.7071 -0.0000
vn 0.3015 -0.9045 0.3015
vn 0.5774 -0.5774 0.5774
vn -0.5774 0.5774 0.5774
vn 0.5774 0.5774 0.5774
vn 0.3015 0.9045 0.3015
vn -0.7071 0.7071 -0.0000
vn 0.7071 0.0000 0.7071
vn -0.7071 0.0000 0.7071
vn 0.0000 -0.7071 -0.7071
vn -0.2971 -0.6303 -0.7173
vn -0.3826 0.0000 -0.9239
vn 0.0000 0.0000 -1.0000
vn -1.0000 0.0000 -0.0000
vn -0.7173 -0.6303 -0.2971
vn -0.9239 0.0000 -0.3826
vn 0.0000 0.7071 -0.7071
vn -0.2971 0.6303 -0.7173
vn -0.7173 0.6303 -0.2971
vn -0.3015 0.9045 0.3015
vn -0.3015 -0.9045 0.3015
vn 0.7173 0.6303 -0.2971
vn 0.7071 0.7071 -0.0000
vn 1.0000 0.0000 -0.0000
vn 0.9239 0.0000 -0.3826
vn 0.2971 -0.6303 -0.7173
vn 0.7173 -0.6303 -0.2971
vn 0.7071 -0.7071 -0.0000
vn 0.3826 0.0000 -0.9239
vn 0.2971 0.6303 -0.7173
# 31 vertex normals

vt 0.4535 0.9050 0.0000
vt 0.9035 0.9050 0.0000
vt 0.9035 0.9350 0.0000
vt 0.4535 0.9350 0.0000
vt 0.4520 0.9050 0.0000
vt 0.4520 0.9350 0.0000
vt 0.0020 0.9350 0.0000
vt 0.0020 0.9050 0.0000
vt 0.5720 0.9680 0.0000
vt 0.5720 0.9980 0.0000
vt 0.2528 0.9980 0.0000
vt 0.2528 0.9680 0.0000
vt 0.5720 0.4535 0.0000
vt 0.5720 0.9035 0.0000
vt 0.2528 0.9035 0.0000
vt 0.2528 0.4535 0.0000
vt 0.5573 0.4404 0.0000
vt 0.5573 0.4682 0.0000
vt 0.2463 0.4682 0.0000
vt 0.2463 0.4404 0.0000
vt 0.5720 0.0020 0.0000
vt 0.5720 0.4520 0.0000
vt 0.2528 0.4520 0.0000
vt 0.2528 0.0020 0.0000
vt 0.4996 0.9110 0.0000
vt 0.4704 0.9110 0.0000
vt 0.4704 0.8832 0.0000
vt 0.4718 0.8818 0.0000
vt 0.4996 0.8818 0.0000
vt 0.5573 0.9395 0.0000
vt 0.2463 0.9395 0.0000
vt 0.2463 0.9117 0.0000
vt 0.5573 0.9117 0.0000
vt 0.0020 0.8818 0.0000
vt 0.0312 0.8818 0.0000
vt 0.0312 0.9110 0.0000
vt 0.0035 0.9110 0.0000
vt 0.0020 0.9095 0.0000
vt 0.0020 0.4711 0.0000
vt 0.2463 0.4711 0.0000
vt 0.2463 0.8803 0.0000
vt 0.0020 0.8803 0.0000
vt 0.9088 0.8818 0.0000
vt 0.9088 0.9110 0.0000
vt 0.2463 0.0312 0.0000
vt 0.5573 0.0312 0.0000
vt 0.4404 0.8818 0.0000
vt 0.4404 0.9110 0.0000
vt 0.0020 0.9980 0.0000
vt 0.0020 0.9702 0.0000
vt 0.2463 0.9702 0.0000
vt 0.2463 0.9980 0.0000
vt 0.0020 0.9680 0.0000
vt 0.9366 0.8818 0.0000
vt 0.9380 0.8832 0.0000
vt 0.9380 0.9110 0.0000
vt 0.2463 0.0035 0.0000
vt 0.5573 0.0035 0.0000
vt 0.4696 0.8818 0.0000
vt 0.4696 0.9095 0.0000
vt 0.4682 0.9110 0.0000
vt 0.0020 0.0020 0.0000
vt 0.0020 0.4520 0.0000
vt 0.0020 0.9035 0.0000
vt 0.0020 0.4535 0.0000
vt 0.0020 0.4682 0.0000
vt 0.0020 0.4404 0.0000
vt 0.0020 0.9395 0.0000
vt 0.0020 0.9117 0.0000
vt 0.5573 0.4711 0.0000
vt 0.5573 0.8803 0.0000
vt 0.0020 0.0312 0.0000
vt 0.5573 0.9702 0.0000
vt 0.5573 0.9980 0.0000
vt 0.0020 0.0035 0.0000
vt 0.5573 0.4696 0.0000
vt 0.2463 0.4696 0.0000
vt 0.5573 0.0020 0.0000
vt 0.2463 0.0020 0.0000
vt 0.0020 0.4696 0.0000
# 80 texture coords

o Box008
g Box008
usemtl Material__38
s 1
f 1/1/1 2/2/2 3/3/3 4/4/4 
usemtl Material__36
f 5/5/5 6/6/6 7/7/7 8/8/8 
usemtl Material__38
s 2
f 1/9/1 4/10/4 9/11/9 10/12/10 
s 4
f 4/13/4 3/14/3 11/15/9 9/16/9 
s 2
f 12/17/11 13/18/12 14/19/13 15/20/14 
s 4
f 2/21/2 1/22/1 10/23/10 16/24/15 
s 1
f 3/25/3 2/26/2 17/27/16 13/28/12 12/29/11 
s 4
f 2/30/2 16/31/15 18/32/17 17/33/16 
usemtl Material__36
s 1
f 8/34/8 7/35/7 19/36/18 20/37/19 21/38/20 
s 2
f 7/39/7 11/40/9 22/41/10 23/42/21 
usemtl Material__38
s 1
f 3/25/3 12/29/11 24/43/11 25/44/22 
s 2
f 12/17/11 15/20/14 26/45/14 24/46/11 
usemtl Material__36
s 1
f 19/36/18 7/35/7 23/47/21 27/48/18 
s 2
f 28/49/23 29/50/24 30/51/25 31/52/26 
s 4
f 32/53/5 33/12/10 34/11/9 35/49/6 
usemtl Material__38
s 1
f 25/44/22 24/43/11 36/54/27 37/55/28 38/56/29 
s 2
f 24/46/11 26/45/14 39/57/30 36/58/27 
usemtl Material__36
s 1
f 27/48/18 23/47/21 29/59/24 28/60/23 40/61/31 
s 8
f 23/62/21 22/24/10 33/23/10 32/63/5 
usemtl Material__38
s 1
f 25/2/22 38/3/29 41/4/4 42/1/1 
s 2
f 38/14/29 30/15/25 34/16/9 41/13/4 
usemtl Material__36
s 1
f 29/7/24 23/8/21 32/5/5 35/6/6 
s 2
f 9/11/9 6/49/6 5/53/5 10/12/10 
s 4
f 11/15/9 7/64/7 6/65/6 9/16/9 
s 2
f 14/19/13 20/66/19 19/67/18 15/20/14 
s 4
f 10/23/10 5/63/5 8/62/8 16/24/15 
f 16/31/15 8/68/8 21/69/20 18/32/17 
usemtl Material__38
s 2
f 11/40/9 3/70/3 25/71/22 22/41/10 
usemtl Material__36
f 15/20/14 19/67/18 27/72/18 26/45/14 
usemtl Material__38
f 30/51/25 38/73/29 37/74/28 31/52/26 
s 4
f 33/12/10 42/9/1 41/10/4 34/11/9 
usemtl Material__36
s 2
f 26/45/14 27/72/18 40/75/31 39/57/30 
usemtl Material__38
s 8
f 22/24/10 25/21/22 42/22/1 33/23/10 
usemtl Material__36
s 2
f 30/15/25 29/64/24 35/65/6 34/16/9 
usemtl Material__38
s 8
f 13/18/12 17/76/16 18/77/17 14/19/13 
s 4
f 37/78/28 36/58/27 39/57/30 31/79/26 
usemtl Material__36
s 8
f 14/19/13 18/77/17 21/80/20 20/66/19 
s 4
f 31/79/26 39/57/30 40/75/31 28/62/23 
# 38 polygons

